<svg enable-background="new 0 0 396.1 233.9" viewBox="0 0 396.1 233.9" xmlns="http://www.w3.org/2000/svg"><g fill="#1d1d1b"><g transform="translate(0 158.055)"><path d="m378.1 6.9v67.7h-6.5v-67.7h-17.5v-6.5h42v6.5z"/><path d="m339.4 75.1-31-54.3-.8-3.3v57.1h-6.6v-73.8h3.7l31 54.3.8 3.3v-57.2h6.5v74.2h-3.7z"/><path d="m246.8 75.1v-74.3h41.6v6.5h-35.1v27.7h28.6v6.5h-28.6v27.7h35.1v6.5h-41.6z"/><path d="m230.5 64.9c-1 2.1-2.4 4.1-4.1 5.7s-3.6 3-5.7 4.1c-2.2.8-4.6 1.3-6.9 1.2h-5.3c-2.4 0-4.7-.4-6.9-1.2-2.2-1-4.1-2.4-5.7-4.1s-3-3.6-4.1-5.7c-.8-2.2-1.2-4.6-1.2-6.9v-40c0-2.4.4-4.7 1.2-6.9 1-2.1 2.4-4.1 4.1-5.7s3.6-3 5.7-4.1c2.2-.8 4.6-1.2 6.9-1.2h5.3c2.4 0 4.7.4 6.9 1.2 2.1 1 4.1 2.4 5.7 4.1s3 3.6 4.1 5.7c.8 2.2 1.2 4.6 1.2 6.9v2.9l-6.5 1.2v-4.1c0-1.5-.3-3-.8-4.5-1.1-2.8-3.3-5-6.1-6.1-1.4-.7-2.9-.9-4.5-.8h-4.5c-1.5 0-3 .3-4.5.8-1.3.6-2.6 1.4-3.7 2.4s-1.9 2.3-2.4 3.7-.8 3-.8 4.5v40c0 1.5.3 3 .8 4.5.6 1.3 1.4 2.6 2.4 3.7s2.3 1.9 3.7 2.4c1.4.7 2.9.9 4.5.8h4.5c1.5 0 3-.3 4.5-.8 1.3-.6 2.6-1.4 3.7-2.4s1.9-2.3 2.4-3.7c.7-1.4.9-2.9.8-4.5v-4.1l6.5 1.2v2.9c0 2.3-.4 4.6-1.2 6.9z"/><path d="m170.5 75.1-31-54.3-.4-3.3v57.1h-6.5v-73.8h3.7l31 54.3.8 3.3v-57.2h6.5v74.2h-4.1z"/><path d="m108.9 75.1v-74.3h6.5v74.2h-6.5z"/><path d="m91.8.8h6.9l-43.6 72.6h-3.7v-72.6h6.9v54.3z"/><path d="m38.3 75.1-31-54.3-.8-3.3v57.1h-6.5v-73.8h3.7l31 54.3.8 3.3v-57.2h6.5v74.2h-3.7z"/></g><path d="m141.2 46.7 11.6 19.9v61.5h-11.6zm12.7-12 9.1 15.9 5.8 9.8 38.9 67.3h6.2v-127.7h-11.6v94.4l-55-94.4h-6.2v13l11.6 19.9"/></g></svg>