<?xml version="1.0" standalone="no"?>
<!DOCTYPE svg PUBLIC "-//W3C//DTD SVG 20010904//EN"
 "http://www.w3.org/TR/2001/REC-SVG-20010904/DTD/svg10.dtd">
<svg version="1.0" xmlns="http://www.w3.org/2000/svg"
 width="512.000000pt" height="512.000000pt" viewBox="0 0 512.000000 512.000000"
 preserveAspectRatio="xMidYMid meet">

<g transform="translate(0.000000,512.000000) scale(0.100000,-0.100000)"
fill="#000000" stroke="none">
<path d="M620 4464 c-215 -46 -400 -232 -445 -449 -22 -105 -22 -2806 0 -2910
41 -196 199 -371 393 -437 l67 -23 1892 -3 c2076 -3 1965 -6 2095 57 141 67
260 203 308 351 l25 75 0 1435 0 1435 -23 73 c-61 193 -239 355 -437 397 -102
21 -3775 21 -3875 -1z m3822 -314 c63 -18 129 -70 162 -130 28 -49 31 -65 34
-155 l3 -100 -1040 -667 -1040 -668 -1041 668 -1041 667 3 100 c3 90 6 106 34
155 32 58 99 112 158 129 45 13 3721 14 3768 1z m-2944 -1417 l1007 -648 55 0
56 0 1007 648 c554 356 1009 647 1012 647 3 0 4 -501 3 -1112 l-3 -1113 -22
-41 c-28 -53 -74 -99 -127 -127 l-41 -22 -1864 -3 c-1248 -1 -1876 1 -1901 8
-64 17 -130 70 -164 130 l-31 55 -3 1113 c-1 611 0 1112 3 1112 4 0 459 -291
1013 -647z"/>
</g>
</svg>
