<svg id="email" xmlns="http://www.w3.org/2000/svg" width="56.485" height="45.22" viewBox="0 0 56.485 45.22">
  <path id="Tracé_39" data-name="Tracé 39" d="M21.285-447.867a7.038,7.038,0,0,0-5.24,5.287c-.259,1.236-.259,33.044,0,34.269a7.2,7.2,0,0,0,4.628,5.146l.789.271,22.281.035c24.448.035,23.14.071,24.671-.671a7.213,7.213,0,0,0,3.627-4.133l.294-.883v-33.8l-.271-.86a7.162,7.162,0,0,0-5.146-4.675C65.717-448.126,22.462-448.126,21.285-447.867Zm45.009,3.7a3.4,3.4,0,0,1,1.908,1.531,2.974,2.974,0,0,1,.4,1.825l.035,1.178L56.39-431.78l-12.247,7.866L31.883-431.78l-12.259-7.855.035-1.178a2.974,2.974,0,0,1,.4-1.825,3.451,3.451,0,0,1,1.861-1.519C22.451-444.31,65.74-444.322,66.294-444.169ZM31.624-427.482l11.859,7.631H44.79l11.859-7.631c6.524-4.192,11.882-7.619,11.918-7.619s.047,5.9.035,13.1L68.567-408.9l-.259.483a3.66,3.66,0,0,1-1.5,1.5l-.483.259-21.951.036c-14.7.012-22.092-.012-22.387-.094a3.4,3.4,0,0,1-1.931-1.531l-.365-.648-.035-13.107c-.012-7.2,0-13.1.035-13.1S25.1-431.674,31.624-427.482Z" transform="translate(-15.85 448.063)"/>
</svg>
