<?xml version="1.0" encoding="utf-8"?>
<!-- Generator: Adobe Illustrator 26.5.0, SVG Export Plug-In . SVG Version: 6.00 Build 0)  -->
<svg version="1.1"
	 id="svg3070" xmlns:inkscape="http://www.inkscape.org/namespaces/inkscape" xmlns:sodipodi="http://sodipodi.sourceforge.net/DTD/sodipodi-0.dtd" xmlns:svg="http://www.w3.org/2000/svg" xmlns:rdf="http://www.w3.org/1999/02/22-rdf-syntax-ns#" xmlns:cc="http://creativecommons.org/ns#" xmlns:dc="http://purl.org/dc/elements/1.1/" inkscape:version="0.48.0 r9654" sodipodi:docname="New document 4"
	 xmlns="http://www.w3.org/2000/svg" xmlns:xlink="http://www.w3.org/1999/xlink" x="0px" y="0px" viewBox="0 0 53.4 51"
	 style="enable-background:new 0 0 53.4 51;" xml:space="preserve">
<style type="text/css">
	.st0{fill-rule:evenodd;clip-rule:evenodd;fill:#FFFFFF;}
</style>
<g>
	<path id="path28" inkscape:connector-curvature="0" class="st0" d="M12.1,51V16.6H0.7V51H12.1z M6.4,11.9c4,0,6.5-2.6,6.5-5.9
		C12.8,2.6,10.4,0,6.5,0C2.6,0,0,2.6,0,5.9C0,9.3,2.5,11.9,6.4,11.9L6.4,11.9L6.4,11.9z"/>
	<path id="path30" inkscape:connector-curvature="0" class="st0" d="M18.5,51h11.4V31.8c0-1,0.1-2.1,0.4-2.8
		c0.8-2.1,2.7-4.2,5.9-4.2c4.1,0,5.8,3.2,5.8,7.8V51h11.4V31.3c0-10.6-5.6-15.5-13.2-15.5c-6.2,0-8.9,3.5-10.4,5.8h0.1v-5H18.5
		C18.6,19.8,18.5,51,18.5,51L18.5,51z"/>
</g>
</svg>
