<?xml version="1.0" encoding="utf-8"?>
<!-- Generator: Adobe Illustrator 26.0.3, SVG Export Plug-In . SVG Version: 6.00 Build 0)  -->
<svg version="1.1" id="LOGO" xmlns="http://www.w3.org/2000/svg" xmlns:xlink="http://www.w3.org/1999/xlink" x="0px" y="0px"
	 viewBox="0 0 396.1 233.9" style="enable-background:new 0 0 396.1 233.9;" xml:space="preserve">
<style type="text/css">
	.st0{fill:#1D1D1B;}
</style>
<g id="NVincent" transform="translate(0 158.055)">
	<path id="Tracé_29" class="st0" d="M378.1,6.9v67.7h-6.5V6.9h-17.5V0.4h42v6.5H378.1z"/>
	<path id="Tracé_28" class="st0" d="M339.4,75.1l-31-54.3l-0.8-3.3v57.1H301V0.8h3.7l31,54.3l0.8,3.3V1.2h6.5v74.2h-3.7L339.4,75.1
		z"/>
	<path id="Tracé_27" class="st0" d="M246.8,75.1V0.8h41.6v6.5h-35.1v27.7h28.6v6.5h-28.6v27.7h35.1v6.5h-41.6V75.1z"/>
	<path id="Tracé_26" class="st0" d="M230.5,64.9c-1,2.1-2.4,4.1-4.1,5.7c-1.7,1.6-3.6,3-5.7,4.1c-2.2,0.8-4.6,1.3-6.9,1.2h-5.3
		c-2.4,0-4.7-0.4-6.9-1.2c-2.2-1-4.1-2.4-5.7-4.1c-1.6-1.7-3-3.6-4.1-5.7c-0.8-2.2-1.2-4.6-1.2-6.9v-40c0-2.4,0.4-4.7,1.2-6.9
		c1-2.1,2.4-4.1,4.1-5.7c1.7-1.6,3.6-3,5.7-4.1c2.2-0.8,4.6-1.2,6.9-1.2h5.3c2.4,0,4.7,0.4,6.9,1.2c2.1,1,4.1,2.4,5.7,4.1
		c1.6,1.7,3,3.6,4.1,5.7c0.8,2.2,1.2,4.6,1.2,6.9v2.9l-6.5,1.2v-4.1c0-1.5-0.3-3-0.8-4.5c-1.1-2.8-3.3-5-6.1-6.1
		c-1.4-0.7-2.9-0.9-4.5-0.8h-4.5c-1.5,0-3,0.3-4.5,0.8c-1.3,0.6-2.6,1.4-3.7,2.4c-1.1,1-1.9,2.3-2.4,3.7c-0.5,1.4-0.8,3-0.8,4.5v40
		c0,1.5,0.3,3,0.8,4.5c0.6,1.3,1.4,2.6,2.4,3.7c1,1.1,2.3,1.9,3.7,2.4c1.4,0.7,2.9,0.9,4.5,0.8h4.5c1.5,0,3-0.3,4.5-0.8
		c1.3-0.6,2.6-1.4,3.7-2.4c1.1-1,1.9-2.3,2.4-3.7c0.7-1.4,0.9-2.9,0.8-4.5v-4.1l6.5,1.2v2.9C231.7,60.3,231.3,62.6,230.5,64.9z"/>
	<path id="Tracé_25" class="st0" d="M170.5,75.1l-31-54.3l-0.4-3.3v57.1h-6.5V0.8h3.7l31,54.3l0.8,3.3V1.2h6.5v74.2h-4.1V75.1z"/>
	<path id="Tracé_24" class="st0" d="M108.9,75.1V0.8h6.5v74.2H108.9z"/>
	<path id="Tracé_23" class="st0" d="M91.8,0.8h6.9L55.1,73.4h-3.7V0.8h6.9v54.3L91.8,0.8z"/>
	<path id="Tracé_22" class="st0" d="M38.3,75.1l-31-54.3l-0.8-3.3v57.1H0V0.8h3.7l31,54.3l0.8,3.3V1.2H42v74.2h-3.7V75.1z"/>
</g>
<path id="Tracé_5" class="st0" d="M141.2,46.7l11.6,19.9v61.5h-11.6V46.7z M153.9,34.7l9.1,15.9l5.8,9.8l0,0l38.9,67.3h6.2V0h-11.6
	v94.4L147.3,0h-6.2v13l11.6,19.9"/>
</svg>
