<?xml version="1.0" encoding="utf-8"?>
<!-- Generator: Adobe Illustrator 26.0.3, SVG Export Plug-In . SVG Version: 6.00 Build 0)  -->
<svg version="1.1" id="LOGO" xmlns="http://www.w3.org/2000/svg" xmlns:xlink="http://www.w3.org/1999/xlink" x="0px" y="0px"
	 viewBox="0 0 220 129.9" style="enable-background:new 0 0 220 129.9;" xml:space="preserve">
<style type="text/css">
	.st0{fill:#FFFFFF;}
</style>
<g id="NVincent" transform="translate(0 87.788)">
	<path id="Tracé_29" class="st0" d="M210,3.9v37.6h-3.6V3.9h-9.7V0.2H220v3.6H210z"/>
	<path id="Tracé_28" class="st0" d="M188.5,41.7l-17.2-30.1l-0.5-1.8v31.7h-3.6v-41h2l17.2,30.1l0.5,1.8V0.7h3.6v41.2h-2V41.7z"/>
	<path id="Tracé_27" class="st0" d="M137.1,41.7V0.5h23.1v3.6h-19.5v15.4h15.9v3.6h-15.9v15.4h19.5v3.6h-23.1V41.7z"/>
	<path id="Tracé_26" class="st0" d="M128,36c-0.5,1.2-1.3,2.3-2.3,3.2c-1,0.9-2,1.6-3.2,2.3c-1.2,0.5-2.5,0.7-3.9,0.7h-2.9
		c-1.3,0-2.6-0.2-3.9-0.7c-1.2-0.5-2.3-1.3-3.2-2.3c-0.9-1-1.6-2-2.3-3.2c-0.5-1.2-0.7-2.5-0.7-3.9V10c0-1.3,0.2-2.6,0.7-3.9
		c0.5-1.2,1.3-2.3,2.3-3.2c1-0.9,2-1.6,3.2-2.3c1.2-0.5,2.5-0.7,3.9-0.7h2.9c1.3,0,2.6,0.2,3.9,0.7c1.2,0.5,2.3,1.3,3.2,2.3
		c0.9,1,1.6,2,2.3,3.2c0.5,1.2,0.7,2.5,0.7,3.9v1.6l-3.6,0.7V10c0-0.8-0.2-1.7-0.5-2.5c-0.6-1.5-1.9-2.8-3.4-3.4
		c-0.8-0.4-1.6-0.5-2.5-0.5h-2.5c-0.8,0-1.7,0.2-2.5,0.5c-0.7,0.3-1.4,0.8-2,1.4c-0.6,0.6-1.1,1.3-1.4,2c-0.3,0.8-0.4,1.6-0.5,2.5
		v22.2c0,0.8,0.2,1.7,0.5,2.5c0.3,0.7,0.8,1.4,1.4,2c0.6,0.6,1.3,1.1,2,1.4c0.8,0.4,1.6,0.5,2.5,0.5h2.5c0.8,0,1.7-0.2,2.5-0.5
		c0.7-0.3,1.4-0.8,2-1.4c0.6-0.6,1.1-1.3,1.4-2c0.4-0.8,0.5-1.6,0.5-2.5v-2.3l3.6,0.7v1.6C128.7,33.5,128.5,34.8,128,36z"/>
	<path id="Tracé_25" class="st0" d="M94.7,41.7L77.5,11.6l-0.2-1.8v31.7h-3.6v-41h2l17.2,30.1l0.5,1.8V0.7H97v41.2h-2.3V41.7z"/>
	<path id="Tracé_24" class="st0" d="M60.5,41.7V0.5h3.6v41.2H60.5z"/>
	<path id="Tracé_23" class="st0" d="M51,0.5h3.9L30.6,40.8h-2V0.5h3.9v30.1L51,0.5z"/>
	<path id="Tracé_22" class="st0" d="M21.3,41.7L4.1,11.6L3.6,9.7v31.7H0v-41h2l17.2,30.1l0.5,1.8V0.7h3.6v41.2h-2V41.7z"/>
</g>
<path id="Tracé_5" class="st0" d="M78.4,25.9L84.9,37v34.2h-6.5V25.9z M85.5,19.3l5,8.8l3.2,5.4l0,0l21.6,37.4h3.4V0h-6.5v52.4
	L81.8,0h-3.4v7.2l6.5,11"/>
</svg>
