<svg xmlns="http://www.w3.org/2000/svg" width="396.093" height="233.928" viewBox="0 0 396.093 233.928">
  <g id="LOGO" transform="translate(0 0)">
    <g id="NVincent" transform="translate(0 158.055)">
      <g id="Groupe_8" data-name="Groupe 8">
        <path id="Tracé_22" data-name="Tracé 22" d="M45.245,89.542l-31-54.254-.816-3.263V89.134H6.9V15.3h3.671l31,54.254.816,3.263V15.708h6.527V89.95H45.245Z" transform="translate(-6.9 -14.484)" fill="#3f3f3f"/>
        <g id="Groupe_7" data-name="Groupe 7" transform="translate(51.398 0.816)">
          <path id="Tracé_23" data-name="Tracé 23" d="M59.884,15.3h6.935L23.171,87.91H19.5V15.3h6.935V69.554Z" transform="translate(-19.5 -15.3)" fill="#3f3f3f"/>
        </g>
        <path id="Tracé_24" data-name="Tracé 24" d="M33.6,89.542V15.3h6.527V89.542Z" transform="translate(75.315 -14.484)" fill="#3f3f3f"/>
        <path id="Tracé_25" data-name="Tracé 25" d="M77.337,89.542l-31-54.254-.408-3.263V89.134H39.4V15.3h3.671l31,54.254.816,3.263V15.708h6.527V89.95H77.337Z" transform="translate(93.175 -14.484)" fill="#3f3f3f"/>
        <path id="Tracé_26" data-name="Tracé 26" d="M93.576,79.96A18.387,18.387,0,0,1,89.5,85.671a28.955,28.955,0,0,1-5.711,4.079,19.055,19.055,0,0,1-6.935,1.224h-5.3a19.055,19.055,0,0,1-6.935-1.224A18.387,18.387,0,0,1,58.9,85.671a28.956,28.956,0,0,1-4.079-5.711A19.054,19.054,0,0,1,53.6,73.025V33.049a19.055,19.055,0,0,1,1.224-6.935A18.387,18.387,0,0,1,58.9,20.4a28.956,28.956,0,0,1,5.711-4.079A19.055,19.055,0,0,1,71.549,15.1h5.3a19.055,19.055,0,0,1,6.935,1.224A18.387,18.387,0,0,1,89.5,20.4a28.955,28.955,0,0,1,4.079,5.711A19.055,19.055,0,0,1,94.8,33.049V35.9l-6.527,1.224V33.049a14.664,14.664,0,0,0-.816-4.487,11.249,11.249,0,0,0-6.119-6.119,8.783,8.783,0,0,0-4.487-.816H72.364a14.664,14.664,0,0,0-4.487.816,14.236,14.236,0,0,0-3.671,2.448,9.632,9.632,0,0,0-2.448,3.671,14.665,14.665,0,0,0-.816,4.487V73.025a14.665,14.665,0,0,0,.816,4.487,14.236,14.236,0,0,0,2.448,3.671,9.632,9.632,0,0,0,3.671,2.448,8.784,8.784,0,0,0,4.487.816h4.487a14.663,14.663,0,0,0,4.487-.816,14.236,14.236,0,0,0,3.671-2.448,9.632,9.632,0,0,0,2.448-3.671,8.783,8.783,0,0,0,.816-4.487V68.946L94.8,70.17v2.855A19.055,19.055,0,0,1,93.576,79.96Z" transform="translate(136.9 -15.1)" fill="#3f3f3f"/>
        <path id="Tracé_27" data-name="Tracé 27" d="M67.4,89.542V15.3h41.608v6.527H73.927V49.566h28.555v6.527H73.927V83.831h35.081v6.527H67.4Z" transform="translate(179.393 -14.484)" fill="#3f3f3f"/>
        <path id="Tracé_28" data-name="Tracé 28" d="M119.045,89.542l-31-54.254-.816-3.263V89.134H80.7V15.3h3.671l31,54.254.816,3.263V15.708h6.527V89.95h-3.671Z" transform="translate(220.347 -14.484)" fill="#3f3f3f"/>
        <path id="Tracé_29" data-name="Tracé 29" d="M117.767,21.727V89.442h-6.527V21.727H93.7V15.2h42.016v6.527Z" transform="translate(260.377 -14.792)" fill="#3f3f3f"/>
      </g>
    </g>
    <g id="Logo-2" data-name="Logo" transform="translate(141.167 0)">
      <path id="Tracé_5" data-name="Tracé 5" d="M9.8,53.063l11.635,19.9v61.494H9.8ZM22.526,41.126l9.09,15.916,5.817,9.767h0l38.9,67.282h6.181V6.4H70.883v94.412L15.981,6.4H9.8V19.422l11.635,19.9" transform="translate(-9.8 -6.4)" fill="#3f3f3f"/>
    </g>
  </g>
</svg>
