<svg xmlns="http://www.w3.org/2000/svg" width="298.797" height="71.124" viewBox="0 0 298.797 71.124">
  <g id="LOGO" transform="translate(0 -72.965)">
    <g id="NVincent" transform="translate(0 87.965)">
      <g id="Groupe_8" data-name="Groupe 8">
        <path id="Tracé_22" data-name="Tracé 22" d="M28.2,56.536,10.978,26.4l-.453-1.813v31.72H6.9V15.3H8.939L26.158,45.434l.453,1.813V15.527h3.625V56.762H28.2Z" transform="translate(-6.9 -14.847)" fill="#fff"/>
        <g id="Groupe_7" data-name="Groupe 7" transform="translate(28.548 0.453)">
          <path id="Tracé_23" data-name="Tracé 23" d="M41.93,15.3h3.852L21.539,55.63H19.5V15.3h3.852V45.434Z" transform="translate(-19.5 -15.3)" fill="#fff"/>
        </g>
        <path id="Tracé_24" data-name="Tracé 24" d="M33.6,56.536V15.3h3.625V56.536Z" transform="translate(26.894 -14.847)" fill="#fff"/>
        <path id="Tracé_25" data-name="Tracé 25" d="M60.471,56.536,43.252,26.4l-.227-1.813v31.72H39.4V15.3h2.039L58.658,45.434l.453,1.813V15.527h3.625V56.762H60.471Z" transform="translate(34.235 -14.847)" fill="#fff"/>
        <path id="Tracé_26" data-name="Tracé 26" d="M75.8,51.125A10.213,10.213,0,0,1,73.538,54.3a16.083,16.083,0,0,1-3.172,2.266,10.584,10.584,0,0,1-3.852.68H63.569a10.583,10.583,0,0,1-3.852-.68A10.213,10.213,0,0,1,56.545,54.3a16.083,16.083,0,0,1-2.266-3.172,10.583,10.583,0,0,1-.68-3.852v-22.2a10.583,10.583,0,0,1,.68-3.852,10.213,10.213,0,0,1,2.266-3.172,16.083,16.083,0,0,1,3.172-2.266,10.584,10.584,0,0,1,3.852-.68h2.945a10.584,10.584,0,0,1,3.852.68,10.213,10.213,0,0,1,3.172,2.266A16.083,16.083,0,0,1,75.8,21.217a10.584,10.584,0,0,1,.68,3.852v1.586l-3.625.68V25.069a8.145,8.145,0,0,0-.453-2.492,6.248,6.248,0,0,0-3.4-3.4,4.879,4.879,0,0,0-2.492-.453H64.022a8.145,8.145,0,0,0-2.492.453,7.907,7.907,0,0,0-2.039,1.359,5.35,5.35,0,0,0-1.359,2.039,8.145,8.145,0,0,0-.453,2.492v22.2a8.145,8.145,0,0,0,.453,2.492A7.907,7.907,0,0,0,59.491,51.8a5.35,5.35,0,0,0,2.039,1.359,4.879,4.879,0,0,0,2.492.453h2.492a8.144,8.144,0,0,0,2.492-.453A7.907,7.907,0,0,0,71.046,51.8a5.35,5.35,0,0,0,1.359-2.039,4.879,4.879,0,0,0,.453-2.492V45.007l3.625.68v1.586A10.584,10.584,0,0,1,75.8,51.125Z" transform="translate(52.208 -15.1)" fill="#fff"/>
        <path id="Tracé_27" data-name="Tracé 27" d="M67.4,56.536V15.3H90.51v3.625H71.025V34.332h15.86v3.625H71.025V53.364H90.51v3.625H67.4Z" transform="translate(69.675 -14.847)" fill="#fff"/>
        <path id="Tracé_28" data-name="Tracé 28" d="M102,56.536,84.778,26.4l-.453-1.813v31.72H80.7V15.3h2.039L99.959,45.434l.453,1.813V15.527h3.625V56.762H102Z" transform="translate(86.509 -14.847)" fill="#fff"/>
        <path id="Tracé_29" data-name="Tracé 29" d="M107.068,18.825V56.436h-3.625V18.825H93.7V15.2h23.337v3.625Z" transform="translate(102.963 -14.973)" fill="#fff"/>
      </g>
    </g>
    <g id="Logo-2" data-name="Logo" transform="translate(258.408 72.965)">
      <path id="Tracé_5" data-name="Tracé 5" d="M9.8,32.318l6.462,11.05V77.524H9.8Zm7.068-6.63,5.049,8.84,3.231,5.425h0l21.608,37.37H50.19V6.4H43.727V58.839L13.233,6.4H9.8v7.233l6.462,11.05" transform="translate(-9.8 -6.4)" fill="#fff"/>
    </g>
  </g>
</svg>
