<svg enable-background="new 0 0 220 129.9" viewBox="0 0 220 129.9" xmlns="http://www.w3.org/2000/svg"><g fill="#fff"><g transform="translate(0 87.788)"><path d="m210 3.9v37.6h-3.6v-37.6h-9.7v-3.7h23.3v3.6h-10z"/><path d="m188.5 41.7-17.2-30.1-.5-1.8v31.7h-3.6v-41h2l17.2 30.1.5 1.8v-31.7h3.6v41.2h-2z"/><path d="m137.1 41.7v-41.2h23.1v3.6h-19.5v15.4h15.9v3.6h-15.9v15.4h19.5v3.6h-23.1z"/><path d="m128 36c-.5 1.2-1.3 2.3-2.3 3.2s-2 1.6-3.2 2.3c-1.2.5-2.5.7-3.9.7h-2.9c-1.3 0-2.6-.2-3.9-.7-1.2-.5-2.3-1.3-3.2-2.3s-1.6-2-2.3-3.2c-.5-1.2-.7-2.5-.7-3.9v-22.1c0-1.3.2-2.6.7-3.9.5-1.2 1.3-2.3 2.3-3.2s2-1.6 3.2-2.3c1.2-.5 2.5-.7 3.9-.7h2.9c1.3 0 2.6.2 3.9.7 1.2.5 2.3 1.3 3.2 2.3s1.6 2 2.3 3.2c.5 1.2.7 2.5.7 3.9v1.6l-3.6.7v-2.3c0-.8-.2-1.7-.5-2.5-.6-1.5-1.9-2.8-3.4-3.4-.8-.4-1.6-.5-2.5-.5h-2.5c-.8 0-1.7.2-2.5.5-.7.3-1.4.8-2 1.4s-1.1 1.3-1.4 2c-.3.8-.4 1.6-.5 2.5v22.2c0 .8.2 1.7.5 2.5.3.7.8 1.4 1.4 2s1.3 1.1 2 1.4c.8.4 1.6.5 2.5.5h2.5c.8 0 1.7-.2 2.5-.5.7-.3 1.4-.8 2-1.4s1.1-1.3 1.4-2c.4-.8.5-1.6.5-2.5v-2.3l3.6.7v1.6c0 1.3-.2 2.6-.7 3.8z"/><path d="m94.7 41.7-17.2-30.1-.2-1.8v31.7h-3.6v-41h2l17.2 30.1.5 1.8v-31.7h3.6v41.2h-2.3z"/><path d="m60.5 41.7v-41.2h3.6v41.2z"/><path d="m51 .5h3.9l-24.3 40.3h-2v-40.3h3.9v30.1z"/><path d="m21.3 41.7-17.2-30.1-.5-1.9v31.7h-3.6v-41h2l17.2 30.1.5 1.8v-31.6h3.6v41.2h-2z"/></g><path d="m78.4 25.9 6.5 11.1v34.2h-6.5zm7.1-6.6 5 8.8 3.2 5.4 21.6 37.4h3.4v-70.9h-6.5v52.4l-30.4-52.4h-3.4v7.2l6.5 11"/></g></svg>