<?xml version="1.0" encoding="utf-8"?>
<!-- Generator: Adobe Illustrator 26.5.0, SVG Export Plug-In . SVG Version: 6.00 Build 0)  -->
<svg version="1.1"
	 id="svg2" xmlns:inkscape="http://www.inkscape.org/namespaces/inkscape" xmlns:sodipodi="http://sodipodi.sourceforge.net/DTD/sodipodi-0.dtd" xmlns:svg="http://www.w3.org/2000/svg" xmlns:rdf="http://www.w3.org/1999/02/22-rdf-syntax-ns#" xmlns:cc="http://creativecommons.org/ns#" xmlns:dc="http://purl.org/dc/elements/1.1/" inkscape:version="0.92.3 (2405546, 2018-03-11)" sodipodi:docname="Pinterest_Logo.svg"
	 xmlns="http://www.w3.org/2000/svg" xmlns:xlink="http://www.w3.org/1999/xlink" x="0px" y="0px" viewBox="0 0 194.8 241.6"
	 style="enable-background:new 0 0 194.8 241.6;" xml:space="preserve">
<style type="text/css">
	.st0{fill:#FFFFFF;}
</style>
<path class="st0" d="M41.8,238c-1.3-12.1-2.5-30.6,0.5-43.8c2.8-11.9,17.9-75.8,17.9-75.8s-4.6-9.1-4.6-22.6c0-21.2,12.3-37,27.6-37
	c13,0,19.3,9.8,19.3,21.5c0,13.1-8.3,32.6-12.6,50.8c-3.6,15.2,7.6,27.6,22.6,27.6c27.1,0,47.9-28.6,47.9-69.8
	c0-36.5-26.2-62-63.7-62c-43.4,0-68.9,32.5-68.9,66.2c0,13.1,5,27.2,11.3,34.8c1.2,1.5,1.4,2.8,1.1,4.4c-1.2,4.8-3.7,15.2-4.2,17.3
	c-0.7,2.8-2.2,3.4-5.1,2c-19-8.9-31-36.7-31-59.1C0,44.2,35,0,100.8,0c52.9,0,94,37.7,94,88.1c0,52.6-33.1,94.8-79.1,94.8
	c-15.5,0-30-8-35-17.5c0,0-7.6,29.1-9.5,36.2c-3.4,13.2-12.7,29.8-19,40L41.8,238z"/>
</svg>
